<?xml version="1.0" encoding="UTF-8"?>
<svg version="1.1" xmlns="http://www.w3.org/2000/svg" width="80" height="80" color="white">
<path d="M0 0 C7.90160458 -0.06775484 15.80298364 -0.12280356 23.70480061 -0.15543652 C27.37386676 -0.17109805 31.04272401 -0.19234475 34.71166992 -0.22631836 C38.25188947 -0.25889514 41.79190799 -0.27684934 45.33226585 -0.28463173 C47.34147655 -0.29287924 49.35060628 -0.31630137 51.35969543 -0.33988953 C53.19125435 -0.34022942 53.19125435 -0.34022942 55.05981445 -0.34057617 C56.67530937 -0.35056892 56.67530937 -0.35056892 58.32344055 -0.36076355 C61 0 61 0 62.84147644 1.38212585 C64.35323053 3.49328521 64.46562464 5.04982974 64.625 7.625 C64.60877773 10.61148183 64.60877773 10.61148183 66 13 C66.24264392 17.06024152 66.22854511 21.12402795 66.24023438 25.19091797 C66.24989548 27.2279615 66.28088334 29.26397673 66.3125 31.30078125 C66.32023437 33.23244141 66.32023437 33.23244141 66.328125 35.203125 C66.3374707 36.38551758 66.34681641 37.56791016 66.35644531 38.78613281 C65.95127569 42.43931972 65.2840129 44.13388948 63 47 C60.24751282 47.60127258 60.24751282 47.60127258 56.8762207 47.56762695 C54.98459953 47.56706047 54.98459953 47.56706047 53.05476379 47.56648254 C51.67842627 47.54094926 50.3020988 47.51486928 48.92578125 47.48828125 C47.51760614 47.47895438 46.10941479 47.47183767 44.70121765 47.46684265 C40.99688835 47.44776213 37.29354116 47.39865457 33.58959961 47.34332275 C29.80921719 47.29215161 26.02867588 47.26933332 22.24804688 47.24414062 C14.83158376 47.19053487 7.41592955 47.10521181 0 47 C0 45.35 0 43.7 0 42 C-0.99 42 -1.98 42 -3 42 C-3 38.37 -3 34.74 -3 31 C-2.01 31 -1.02 31 0 31 C0 29.35 0 27.7 0 26 C-1.32 26 -2.64 26 -4 26 C-4 22.04 -4 18.08 -4 14 C-2.68 14 -1.36 14 0 14 C0 9.38 0 4.76 0 0 Z M2 3 C1.92773498 4.85287502 1.9161878 6.70833878 1.9375 8.5625 C1.94652344 9.57441406 1.95554687 10.58632813 1.96484375 11.62890625 C1.97644531 12.41136719 1.98804688 13.19382812 2 14 C4.64 14 7.28 14 10 14 C10 17.96 10 21.92 10 26 C7.36 26 4.72 26 2 26 C2 27.65 2 29.3 2 31 C4.64 31 7.28 31 10 31 C10 34.63 10 38.26 10 42 C7.36 42 4.72 42 2 42 C2.33 42.99 2.66 43.98 3 45 C22.14 45 41.28 45 61 45 C61.66 43.35 62.32 41.7 63 40 C63.33 39.67 63.66 39.34 64 39 C64.25208722 35.19411856 64.18522344 31.37574544 64.1875 27.5625 C64.20586914 25.94891602 64.20586914 25.94891602 64.22460938 24.30273438 C64.22654297 23.27599609 64.22847656 22.24925781 64.23046875 21.19140625 C64.23457764 20.24467041 64.23868652 19.29793457 64.24291992 18.32250977 C64.22616506 15.80635656 64.22616506 15.80635656 62 14 C61.65929591 11.72720185 61.55858171 9.48577736 61.44140625 7.19140625 C60.88920668 4.44995529 60.20910126 3.69240279 58 2 C55.48639572 1.55824996 55.48639572 1.55824996 52.62646484 1.64355469 C51.52877777 1.64055359 50.4310907 1.63755249 49.30014038 1.63446045 C48.11570343 1.64680725 46.93126648 1.65915405 45.7109375 1.671875 C44.49677155 1.67374817 43.28260559 1.67562134 42.03164673 1.67755127 C39.46442927 1.6842773 36.89722216 1.69820257 34.33007812 1.71875 C30.38401859 1.74992874 26.43835803 1.75972198 22.4921875 1.765625 C20.00259926 1.77479357 17.5130151 1.78516888 15.0234375 1.796875 C13.83495209 1.80112488 12.64646667 1.80537476 11.42196655 1.80975342 C10.3305838 1.81936096 9.23920105 1.82896851 8.11474609 1.83886719 C7.14894623 1.84569519 6.18314636 1.85252319 5.18807983 1.85955811 C3.02318006 1.75669918 3.02318006 1.75669918 2 3 Z M-2 16 C-2 18.64 -2 21.28 -2 24 C1.3 24 4.6 24 8 24 C8 21.36 8 18.72 8 16 C4.7 16 1.4 16 -2 16 Z M-1 33 C-1 35.31 -1 37.62 -1 40 C1.97 40 4.94 40 8 40 C8 37.69 8 35.38 8 33 C5.03 33 2.06 33 -1 33 Z " fill="#00a7b9" transform="translate(9,17)"/>
<path d="M0 0 C10.89 0 21.78 0 33 0 C33 2.97 33 5.94 33 9 C22.11 9 11.22 9 0 9 C0 6.03 0 3.06 0 0 Z M2 2 C2 3.65 2 5.3 2 7 C11.57 7 21.14 7 31 7 C31 5.35 31 3.7 31 2 C21.43 2 11.86 2 2 2 Z " fill="#00a7b9" transform="translate(36,41)"/>
<path d="M0 0 C1.19625 0.020625 2.3925 0.04125 3.625 0.0625 C5.8334316 0.0625 8.04189657 0.03807075 10.25 0 C13.625 0.0625 13.625 0.0625 14.625 1.0625 C14.75 4.5625 14.75 4.5625 14.625 8.0625 C13.625 9.0625 13.625 9.0625 10.25 9.125 C9.05375 9.104375 7.8575 9.08375 6.625 9.0625 C4.4165684 9.0625 2.20810343 9.08692925 0 9.125 C-3.375 9.0625 -3.375 9.0625 -4.375 8.0625 C-4.5 4.5625 -4.5 4.5625 -4.375 1.0625 C-3.375 0.0625 -3.375 0.0625 0 0 Z M-1.375 3.0625 C-1.375 4.0525 -1.375 5.0425 -1.375 6.0625 C0.275 5.7325 1.925 5.4025 3.625 5.0625 C3.295 4.4025 2.965 3.7425 2.625 3.0625 C1.305 3.0625 -0.015 3.0625 -1.375 3.0625 Z M7.625 3.0625 C7.625 4.0525 7.625 5.0425 7.625 6.0625 C8.945 6.0625 10.265 6.0625 11.625 6.0625 C11.625 5.0725 11.625 4.0825 11.625 3.0625 C10.305 3.0625 8.985 3.0625 7.625 3.0625 Z " fill="#00a7b9" transform="translate(43.375,27.9375)"/>
<path d="M0 0 C2.64 0 5.28 0 8 0 C8 2.64 8 5.28 8 8 C5.36 8 2.72 8 0 8 C0 5.36 0 2.72 0 0 Z M2 2 C2 3.32 2 4.64 2 6 C3.32 6 4.64 6 6 6 C6 4.68 6 3.36 6 2 C4.68 2 3.36 2 2 2 Z " fill="#00a7b9" transform="translate(23,35)"/>
<path d="M0 0 C1.98 0 3.96 0 6 0 C6 1.98 6 3.96 6 6 C4.02 6 2.04 6 0 6 C0 4.02 0 2.04 0 0 Z " fill="#00a7b9" transform="translate(14,22)"/>
<path d="M0 0 C1.32 0 2.64 0 4 0 C4 1.32 4 2.64 4 4 C2.68 4 1.36 4 0 4 C0 2.68 0 1.36 0 0 Z " fill="#00a7b9" transform="translate(29,48)"/>
<path d="M0 0 C1.32 0 2.64 0 4 0 C4 1.32 4 2.64 4 4 C2.68 4 1.36 4 0 4 C0 2.68 0 1.36 0 0 Z " fill="#00a7b9" transform="translate(22,48)"/>
<path d="M0 0 C1.98 0 3.96 0 6 0 C6 0.66 6 1.32 6 2 C4.02 2 2.04 2 0 2 C0 1.34 0 0.68 0 0 Z " fill="#00a7b9" transform="translate(36,23)"/>
<path d="M0 0 C0.99 0 1.98 0 3 0 C3 0.99 3 1.98 3 3 C2.01 3 1.02 3 0 3 C0 2.01 0 1.02 0 0 Z " fill="#00a7b9" transform="translate(23,56)"/>
<path d="M0 0 C0.99 0 1.98 0 3 0 C3 0.99 3 1.98 3 3 C2.01 3 1.02 3 0 3 C0 2.01 0 1.02 0 0 Z " fill="#00a7b9" transform="translate(67,53)"/>
<path d="M0 0 C0.99 0 1.98 0 3 0 C3 0.99 3 1.98 3 3 C2.01 3 1.02 3 0 3 C0 2.01 0 1.02 0 0 Z " fill="#00a7b9" transform="translate(67,34)"/>
<path d="M0 0 C0.99 0 1.98 0 3 0 C3 0.99 3 1.98 3 3 C2.01 3 1.02 3 0 3 C0 2.01 0 1.02 0 0 Z " fill="#00a7b9" transform="translate(23,22)"/>
<path d="M0 0 C0.99 0 1.98 0 3 0 C3 0.66 3 1.32 3 2 C2.01 2 1.02 2 0 2 C0 1.34 0 0.68 0 0 Z " fill="#00a7b9" transform="translate(44,57)"/>
<path d="M0 0 C0.99 0 1.98 0 3 0 C3 0.66 3 1.32 3 2 C2.01 2 1.02 2 0 2 C0 1.34 0 0.68 0 0 Z " fill="#00a7b9" transform="translate(40,57)"/>
<path d="M0 0 C0.99 0 1.98 0 3 0 C3 0.66 3 1.32 3 2 C2.01 2 1.02 2 0 2 C0 1.34 0 0.68 0 0 Z " fill="#00a7b9" transform="translate(36,57)"/>
<path d="M0 0 C0.99 0 1.98 0 3 0 C3 0.66 3 1.32 3 2 C2.01 2 1.02 2 0 2 C0 1.34 0 0.68 0 0 Z " fill="#00a7b9" transform="translate(43,23)"/>
<path d="M0 0 C0.99 0 1.98 0 3 0 C3 0.66 3 1.32 3 2 C2.01 2 1.02 2 0 2 C0 1.34 0 0.68 0 0 Z " fill="#00a7b9" transform="translate(32,23)"/>
<path d="M0 0 C0.66 0 1.32 0 2 0 C2 0.66 2 1.32 2 2 C1.34 2 0.68 2 0 2 C0 1.34 0 0.68 0 0 Z " fill="#00a7b9" transform="translate(62,57)"/>
<path d="M0 0 C0.66 0 1.32 0 2 0 C2 0.66 2 1.32 2 2 C1.34 2 0.68 2 0 2 C0 1.34 0 0.68 0 0 Z " fill="#00a7b9" transform="translate(58,57)"/>
<path d="M0 0 C0.66 0 1.32 0 2 0 C2 0.66 2 1.32 2 2 C1.34 2 0.68 2 0 2 C0 1.34 0 0.68 0 0 Z " fill="#00a7b9" transform="translate(61,23)"/>
<path d="M0 0 C0.66 0 1.32 0 2 0 C2 0.66 2 1.32 2 2 C1.34 2 0.68 2 0 2 C0 1.34 0 0.68 0 0 Z " fill="#00a7b9" transform="translate(57,23)"/>
<path d="M0 0 C0.66 0 1.32 0 2 0 C2 0.66 2 1.32 2 2 C1.34 2 0.68 2 0 2 C0 1.34 0 0.68 0 0 Z " fill="#00a7b9" transform="translate(29,23)"/>
<path d="" fill="#00a7b9" transform="translate(0,0)"/>
<path d="" fill="#00a7b9" transform="translate(0,0)"/>
<path d="" fill="#00a7b9" transform="translate(0,0)"/>
<path d="" fill="#00a7b9" transform="translate(0,0)"/>
<path d="" fill="#00a7b9" transform="translate(0,0)"/>
<path d="" fill="#00a7b9" transform="translate(0,0)"/>
</svg>
