<?xml version="1.0" encoding="UTF-8"?>
<svg version="1.1" xmlns="http://www.w3.org/2000/svg" width="100" height="100">
<path d="M0 0 C0.8677002 -0.01260864 1.73540039 -0.02521729 2.62939453 -0.03820801 C3.55864746 -0.03011108 4.48790039 -0.02201416 5.4453125 -0.01367188 C6.40679199 -0.01749878 7.36827148 -0.02132568 8.35888672 -0.02526855 C10.3896591 -0.0279879 12.42046649 -0.02062517 14.45117188 -0.00390625 C17.5593882 0.01750288 20.66529306 -0.00370734 23.7734375 -0.02929688 C25.74740093 -0.0266536 27.72136293 -0.02152864 29.6953125 -0.01367188 C30.62456543 -0.0217688 31.55381836 -0.02986572 32.51123047 -0.03820801 C33.81278076 -0.01929504 33.81278076 -0.01929504 35.140625 0 C35.90133301 0.00318237 36.66204102 0.00636475 37.44580078 0.00964355 C40.61661047 0.76773015 41.6946055 1.84964219 43.5703125 4.51757812 C43.96487037 7.46543082 44.11763565 10.03935095 44.08789062 12.98632812 C44.0948999 13.83880127 44.10190918 14.69127441 44.10913086 15.56958008 C44.12672818 18.38591132 44.1150821 21.20123676 44.1015625 24.01757812 C44.10425692 25.97526238 44.10813892 27.93294533 44.11315918 29.890625 C44.11905658 33.99296819 44.11048343 38.09496294 44.09179688 42.19726562 C44.06900725 47.45678441 44.08212903 52.71548676 44.10608673 57.97497559 C44.12053813 62.01731523 44.11594173 66.05946118 44.10557556 70.10180664 C44.10290646 72.04109799 44.10618447 73.9804069 44.11549377 75.91967773 C44.12564852 78.62986863 44.11017378 81.33873587 44.08789062 84.04882812 C44.09598755 84.85102783 44.10408447 85.65322754 44.11242676 86.47973633 C44.05912332 89.97758432 43.85107293 92.11823492 41.81481934 95.01452637 C39.32289316 96.68326444 38.10866971 97.02273963 35.140625 97.03515625 C34.2729248 97.04776489 33.40522461 97.06037354 32.51123047 97.07336426 C31.58197754 97.06526733 30.65272461 97.05717041 29.6953125 97.04882812 C28.73383301 97.05265503 27.77235352 97.05648193 26.78173828 97.0604248 C24.7509659 97.06314415 22.72015851 97.05578142 20.68945312 97.0390625 C17.5812368 97.01765337 14.47533194 97.03886359 11.3671875 97.06445312 C9.39322407 97.06180985 7.41926207 97.05668489 5.4453125 97.04882812 C4.05143311 97.06097351 4.05143311 97.06097351 2.62939453 97.07336426 C1.76169434 97.06075562 0.89399414 97.04814697 0 97.03515625 C-0.76070801 97.03197388 -1.52141602 97.0287915 -2.30517578 97.0255127 C-5.47598547 96.2674261 -6.5539805 95.18551406 -8.4296875 92.51757812 C-8.82424537 89.56972543 -8.97701065 86.9958053 -8.94726562 84.04882812 C-8.9542749 83.19635498 -8.96128418 82.34388184 -8.96850586 81.46557617 C-8.98610318 78.64924493 -8.9744571 75.83391949 -8.9609375 73.01757812 C-8.96363192 71.05989387 -8.96751392 69.10221092 -8.97253418 67.14453125 C-8.97843158 63.04218806 -8.96985843 58.94019331 -8.95117188 54.83789062 C-8.92838225 49.57837184 -8.94150403 44.31966949 -8.96546173 39.06018066 C-8.97991313 35.01784102 -8.97531673 30.97569507 -8.96495056 26.93334961 C-8.96228146 24.99405826 -8.96555947 23.05474935 -8.97486877 21.11547852 C-8.98502352 18.40528762 -8.96954878 15.69642038 -8.94726562 12.98632812 C-8.95536255 12.18412842 -8.96345947 11.38192871 -8.97180176 10.55541992 C-8.91849832 7.05757193 -8.71044793 4.91692133 -6.67419434 2.02062988 C-4.18226816 0.35189181 -2.96804471 0.01241662 0 0 Z M-2.58581543 6.05859375 C-5.07718781 9.38108333 -4.99171063 12.2591997 -4.94726562 16.25195312 C-4.9542749 17.02639771 -4.96128418 17.80084229 -4.96850586 18.59875488 C-4.98609249 21.15539544 -4.97446139 23.71092657 -4.9609375 26.26757812 C-4.96363224 28.0459006 -4.96751451 29.82422163 -4.97253418 31.60253906 C-4.97843011 35.3282678 -4.96986337 39.05361277 -4.95117188 42.77929688 C-4.92838209 47.55457099 -4.94150469 52.32894589 -4.96546173 57.10418701 C-4.97991725 60.77594781 -4.97531489 64.44749547 -4.96495056 68.1192627 C-4.96228258 69.87992459 -4.96555554 71.64060584 -4.97486877 73.40124512 C-4.98503058 75.862419 -4.96954003 78.32213763 -4.94726562 80.78320312 C-4.95536255 81.51059692 -4.96345947 82.23799072 -4.97180176 82.98742676 C-4.9153051 86.35765434 -4.64703667 88.22184362 -2.6282959 90.96862793 C0.63651289 93.26873113 3.84540597 93.09015643 7.6953125 93.04882812 C8.47922363 93.05265503 9.26313477 93.05648193 10.07080078 93.0604248 C11.72494799 93.06314165 13.37913833 93.05579623 15.03320312 93.0390625 C17.56217412 93.01764704 20.08830464 93.0388691 22.6171875 93.06445312 C24.22656876 93.06180981 25.83594825 93.05668473 27.4453125 93.04882812 C28.1995752 93.05692505 28.95383789 93.06502197 29.73095703 93.07336426 C32.94816749 93.01603182 35.10541521 92.84510473 37.7689209 90.96862793 C40.21052643 87.6464759 40.13206069 84.75125736 40.08789062 80.78320312 C40.0948999 80.00875854 40.10190918 79.23431396 40.10913086 78.43640137 C40.12671749 75.87976081 40.11508639 73.32422968 40.1015625 70.76757812 C40.10425724 68.98925565 40.10813951 67.21093462 40.11315918 65.43261719 C40.11905511 61.70688845 40.11048837 57.98154348 40.09179688 54.25585938 C40.06900709 49.48058526 40.08212969 44.70621036 40.10608673 39.93096924 C40.12054225 36.25920844 40.11593989 32.58766078 40.10557556 28.91589355 C40.10290758 27.15523166 40.10618054 25.39455041 40.11549377 23.63391113 C40.12565558 21.17273725 40.11016503 18.71301862 40.08789062 16.25195312 C40.09598755 15.52455933 40.10408447 14.79716553 40.11242676 14.04772949 C40.05540431 10.64613708 39.79187576 8.81305448 37.72644043 6.05859375 C34.80762966 3.97247773 32.86729566 4.11336147 29.3203125 4.26757812 C28.24265625 4.30367188 27.165 4.33976563 26.0546875 4.37695312 C25.23484375 4.42335938 24.415 4.46976562 23.5703125 4.51757812 C23.5703125 5.17757813 23.5703125 5.83757813 23.5703125 6.51757812 C19.6103125 6.51757812 15.6503125 6.51757812 11.5703125 6.51757812 C11.5703125 5.85757812 11.5703125 5.19757812 11.5703125 4.51757812 C9.65490112 4.40915861 7.73771477 4.33179734 5.8203125 4.26757812 C4.75296875 4.22117187 3.685625 4.17476563 2.5859375 4.12695312 C-0.45541049 4.27962892 -0.45541049 4.27962892 -2.58581543 6.05859375 Z " fill="#00a7b9" transform="translate(32.4296875,1.482421875)"/>
</svg>
