<?xml version="1.0" encoding="UTF-8"?>
<svg version="1.1" xmlns="http://www.w3.org/2000/svg" width="100" height="100">
<path d="M0 0 C1.14239136 0.00303635 1.14239136 0.00303635 2.30786133 0.00613403 C3.10619385 0.00438171 3.90452637 0.00262939 4.72705078 0.00082397 C7.37900942 -0.00359511 10.03090195 -0.00065636 12.68286133 0.00271606 C14.51749688 0.00204304 16.35213234 0.00107303 18.18676758 -0.00018311 C22.03703661 -0.00166015 25.88728248 0.0004947 29.73754883 0.00515747 C34.6844263 0.01085476 39.63124952 0.0075758 44.578125 0.00158501 C48.36808688 -0.00202042 52.15803579 -0.00088211 55.94799805 0.0017128 C57.77254238 0.00238212 59.59708788 0.00155347 61.42163086 -0.00076675 C63.96707294 -0.00329298 66.51242592 0.00054687 69.05786133 0.00613403 C69.81945557 0.0041098 70.5810498 0.00208557 71.36572266 0 C76.56859875 0.02126599 76.56859875 0.02126599 77.68286133 1.13552856 C77.7798169 2.79998403 77.80802 4.46849597 77.80883789 6.13577271 C77.81264465 7.20521622 77.81645142 8.27465973 77.82037354 9.37651062 C77.82140076 10.5460881 77.82242798 11.71566559 77.82348633 12.92068481 C77.84184098 15.39660527 77.86141367 17.87251695 77.88208008 20.34841919 C77.91084298 24.25164298 77.9328558 28.15431169 77.93334961 32.05764771 C77.80943396 51.41109703 77.80943396 51.41109703 82.57885742 69.97537231 C84.31131224 74.93443802 84.33935842 79.94920157 83.68286133 85.13552856 C81.80727333 87.01111656 79.09997415 86.26215836 76.60418701 86.27105713 C75.73038391 86.2690329 74.85658081 86.26700867 73.95629883 86.2649231 C73.04092346 86.26667542 72.1255481 86.26842773 71.18243408 86.27023315 C68.14089084 86.27465317 65.09940522 86.27171315 62.05786133 86.26834106 C59.95418283 86.26901406 57.8505044 86.26998405 55.74682617 86.27124023 C51.33161684 86.27271741 46.9164277 86.27056202 42.5012207 86.26589966 C36.82793572 86.26020236 31.15469804 86.26348126 25.48141479 86.26947212 C21.13557577 86.2730772 16.78974805 86.27193939 12.44390869 86.26934433 C10.35142003 86.26867491 8.25893036 86.26950399 6.16644287 86.27182388 C3.24740867 86.27434954 0.32845221 86.27051104 -2.59057617 86.2649231 C-3.90128082 86.26795944 -3.90128082 86.26795944 -5.23846436 86.27105713 C-11.20287632 86.24979092 -11.20287632 86.24979092 -12.31713867 85.13552856 C-13.17592228 78.35113802 -12.34526491 72.83328605 -9.84057617 66.51052856 C-5.57590337 54.25056864 -6.56875877 41.00413351 -6.56713867 28.19802856 C-6.54551981 24.32128625 -6.51716087 20.44467518 -6.48480225 16.56800842 C-6.46703175 14.17088729 -6.45675629 11.7736967 -6.45465088 9.37651062 C-6.45084412 8.30706711 -6.44703735 7.2376236 -6.44311523 6.13577271 C-6.44265198 5.19141861 -6.44218872 4.24706451 -6.44171143 3.27409363 C-6.19488313 -0.96325644 -3.63975295 0.01487695 0 0 Z M-2.31713867 4.13552856 C-2.31713867 20.63552856 -2.31713867 37.13552856 -2.31713867 54.13552856 C22.76286133 54.13552856 47.84286133 54.13552856 73.68286133 54.13552856 C73.68286133 37.63552856 73.68286133 21.13552856 73.68286133 4.13552856 C48.60286133 4.13552856 23.52286133 4.13552856 -2.31713867 4.13552856 Z M7.68286133 58.13552856 C7.35286133 60.11552856 7.02286133 62.09552856 6.68286133 64.13552856 C25.82286133 64.13552856 44.96286133 64.13552856 64.68286133 64.13552856 C64.18786133 61.16552856 64.18786133 61.16552856 63.68286133 58.13552856 C45.20286133 58.13552856 26.72286133 58.13552856 7.68286133 58.13552856 Z M27.68286133 68.13552856 C27.35286133 69.45552856 27.02286133 70.77552856 26.68286133 72.13552856 C32.62286133 72.13552856 38.56286133 72.13552856 44.68286133 72.13552856 C44.35286133 70.81552856 44.02286133 69.49552856 43.68286133 68.13552856 C38.40286133 68.13552856 33.12286133 68.13552856 27.68286133 68.13552856 Z M-8.31713867 78.13552856 C-8.31713867 79.45552856 -8.31713867 80.77552856 -8.31713867 82.13552856 C20.72286133 82.13552856 49.76286133 82.13552856 79.68286133 82.13552856 C79.68286133 80.81552856 79.68286133 79.49552856 79.68286133 78.13552856 C50.64286133 78.13552856 21.60286133 78.13552856 -8.31713867 78.13552856 Z " fill="#00a7b9" transform="translate(14.317138671875,7.864471435546875)"/>
</svg>
