<?xml version="1.0" encoding="UTF-8"?>
<svg version="1.1" xmlns="http://www.w3.org/2000/svg" width="100" height="100">
<path d="M0 0 C1.21879852 0.00607269 1.21879852 0.00607269 2.46221924 0.01226807 C3.31761292 0.00876343 4.17300659 0.00525879 5.05432129 0.00164795 C7.89088988 -0.00717764 10.72721047 -0.00131732 13.56378174 0.00543213 C15.52911426 0.00408572 17.49444646 0.00214538 19.45977783 -0.00036621 C23.58236863 -0.0033186 27.70487286 0.00098385 31.82745361 0.01031494 C37.12064503 0.02170953 42.41363365 0.01515067 47.70681763 0.00317001 C51.76618995 -0.0040455 55.82551394 -0.00176208 59.8848877 0.0034256 C61.83699568 0.00476295 63.78910802 0.0031114 65.74121094 -0.00153351 C68.46604089 -0.00659367 71.1905391 0.00110425 73.91534424 0.01226807 C74.72787659 0.0082196 75.54040894 0.00417114 76.37756348 0 C81.96025361 0.042529 81.96025361 0.042529 84.18878174 2.27105713 C84.42929077 5.32089233 84.42929077 5.32089233 84.41583252 9.29107666 C84.41607359 10.02481947 84.41631466 10.75856228 84.41656303 11.51453972 C84.41506783 13.89443884 84.39982588 16.2740264 84.38409424 18.65386963 C84.38115444 20.12123463 84.37911361 21.58860172 84.37799072 23.05596924 C84.36749606 28.50269714 84.33957374 33.94938018 84.31378174 39.39605713 C84.27253174 51.56480713 84.23128174 63.73355713 84.18878174 76.27105713 C53.82878174 76.27105713 23.46878174 76.27105713 -7.81121826 76.27105713 C-7.85246826 64.10230713 -7.89371826 51.93355713 -7.93621826 39.39605713 C-7.95442627 35.55094482 -7.97263428 31.70583252 -7.99139404 27.74420166 C-8.00042725 23.05596924 -8.00042725 23.05596924 -8.00210571 20.86257935 C-8.00518086 19.32765545 -8.01222317 17.79273645 -8.02236938 16.25784302 C-8.03695611 13.93550191 -8.03903206 11.61345654 -8.03826904 9.29107666 C-8.04271027 7.98091583 -8.04715149 6.670755 -8.05172729 5.32089233 C-7.61315243 -0.24056636 -4.93822634 0.03761946 0 0 Z M-3.81121826 6.27105713 C-3.81121826 12.21105713 -3.81121826 18.15105713 -3.81121826 24.27105713 C23.90878174 24.27105713 51.62878174 24.27105713 80.18878174 24.27105713 C80.18878174 18.33105713 80.18878174 12.39105713 80.18878174 6.27105713 C77.70808643 3.79036183 76.27087215 4.02837139 72.88525391 4 C72.14752747 4.00404846 71.40980103 4.00809692 70.64971924 4.01226807 C69.87235413 4.00876343 69.09498901 4.00525879 68.29406738 4.00164795 C65.71721542 3.99282507 63.14063664 3.99868167 60.56378174 4.00543213 C58.77781115 4.00408564 56.99184091 4.00214524 55.20587158 3.99963379 C51.45990515 3.99668177 47.71403399 4.00098264 43.96807861 4.01031494 C39.15915341 4.02170953 34.35045143 4.01515047 29.54153442 4.00317001 C25.85274565 3.99595349 22.16401007 3.99823838 18.47521973 4.0034256 C16.70174127 4.00476267 14.92825803 4.00311237 13.15478516 3.99846649 C10.67900748 3.99340464 8.20359464 4.0011065 5.72784424 4.01226807 C4.62125458 4.00619537 4.62125458 4.00619537 3.49230957 4 C-0.61191582 3.90936661 -0.61191582 3.90936661 -3.81121826 6.27105713 Z M-3.81121826 28.27105713 C-3.81121826 42.79105713 -3.81121826 57.31105713 -3.81121826 72.27105713 C23.90878174 72.27105713 51.62878174 72.27105713 80.18878174 72.27105713 C80.18878174 57.75105713 80.18878174 43.23105713 80.18878174 28.27105713 C52.46878174 28.27105713 24.74878174 28.27105713 -3.81121826 28.27105713 Z " fill="#00a7b9" transform="translate(11.81121826171875,11.72894287109375)"/>
<path d="M0 0 C15.84 0 31.68 0 48 0 C48 3.96 48 7.92 48 12 C32.16 12 16.32 12 0 12 C0 8.04 0 4.08 0 0 Z M4 4 C4 5.32 4 6.64 4 8 C17.2 8 30.4 8 44 8 C44 6.68 44 5.36 44 4 C30.8 4 17.6 4 4 4 Z " fill="#00a7b9" transform="translate(38,20)"/>
<path d="M0 0 C14.52 0 29.04 0 44 0 C44 4.62 44 9.24 44 14 C29.48 14 14.96 14 0 14 C0 9.38 0 4.76 0 0 Z M4 4 C4 5.98 4 7.96 4 10 C15.88 10 27.76 10 40 10 C40 8.02 40 6.04 40 4 C28.12 4 16.24 4 4 4 Z " fill="#00a7b9" transform="translate(14,64)"/>
<path d="M0 0 C14.52 0 29.04 0 44 0 C44 4.62 44 9.24 44 14 C29.48 14 14.96 14 0 14 C0 9.38 0 4.76 0 0 Z M4 4 C4 5.98 4 7.96 4 10 C15.88 10 27.76 10 40 10 C40 8.02 40 6.04 40 4 C28.12 4 16.24 4 4 4 Z " fill="#00a7b9" transform="translate(14,46)"/>
<path d="M0 0 C7.26 0 14.52 0 22 0 C22 10.56 22 21.12 22 32 C14.74 32 7.48 32 0 32 C0 21.44 0 10.88 0 0 Z M4 4 C4 11.92 4 19.84 4 28 C8.62 28 13.24 28 18 28 C18 20.08 18 12.16 18 4 C13.38 4 8.76 4 4 4 Z " fill="#00a7b9" transform="translate(64,46)"/>
<path d="M0 0 C3 0.125 3 0.125 4 1.125 C4.125 4.125 4.125 4.125 4 7.125 C3 8.125 3 8.125 0 8.25 C-3 8.125 -3 8.125 -4 7.125 C-4.125 4.125 -4.125 4.125 -4 1.125 C-3 0.125 -3 0.125 0 0 Z " fill="#00a7b9" transform="translate(28,21.875)"/>
<path d="M0 0 C3 0.125 3 0.125 4 1.125 C4.125 4.125 4.125 4.125 4 7.125 C3 8.125 3 8.125 0 8.25 C-3 8.125 -3 8.125 -4 7.125 C-4.125 4.125 -4.125 4.125 -4 1.125 C-3 0.125 -3 0.125 0 0 Z " fill="#00a7b9" transform="translate(16,21.875)"/>
</svg>
