<?xml version="1.0" standalone="yes"?>
<svg xmlns="http://www.w3.org/2000/svg" width="779" height="771">
<path style="fill:#ffffff; stroke:none;" d="M0 0L0 464L1 464C1.42932 412.139 42.3118 362.893 87 341.258C97.1092 336.364 108.015 332.563 119 330.211C124.512 329.03 133.8 329.352 138.391 326.012C145.615 320.756 150.954 308.196 156.374 301C167.24 286.574 179.791 273.393 193 261.09C241.144 216.245 301.805 194.113 366 186L366 130C366 122.236 367.883 111.667 365.682 104.213C364.544 100.357 358.886 98.1596 356 95.6991C350.199 90.7526 345.23 84.8391 341.81 78C327.136 48.6519 344.376 4.12988 380 1L346 0L269 0L0 0z"/>
<path style="fill:#1ce1dc; stroke:none;" d="M380 0.439026C364.682 2.85107 345.185 15.034 341.136 31C333.679 60.4028 366.508 92.6076 395 88.5718C419.211 85.1423 448.594 58.5405 439.992 31C432.434 6.80731 402.697 -3.13507 380 0.439026z"/>
<path style="fill:#ffffff; stroke:none;" d="M401 0L401 1C435.285 4.01221 453.323 46.9977 440.1 76C437.039 82.7134 432.382 88.8957 426.996 93.9066C424.021 96.6746 418.498 99.0475 417.318 103.184C415.088 111.001 417 121.879 417 130L417 187C477.839 187.168 546.569 222.078 589 264.004C601.539 276.394 613.534 288.877 624.127 303C629.124 309.664 633.912 321.139 640.609 326.012C645.2 329.352 654.488 329.03 660 330.211C670.985 332.563 681.891 336.364 692 341.258C736.688 362.893 777.571 412.139 778 464L779 464L779 0L401 0z"/>
<path style="fill:#09b2b2; stroke:none;" d="M340 33L340 39L341 39L340 33z"/>
<path style="fill:#0e7676; stroke:none;" d="M339 35C336.761 45.8516 334.933 56.0206 337.759 67C347.07 103.164 393.975 121.433 424 96.6713C443.343 80.7187 446.798 59.2581 442 36L441 36C440.688 73.6865 398.789 103.959 365 81.2507C354.59 74.2544 346.832 63.9656 343.029 52C341.275 46.4821 341.703 40.0845 339 35z"/>
<path style="fill:#09b2b2; stroke:none;" d="M440 35L440 44L441 44L442 35L440 35M338 37L339 38L338 37M442 38L443 39L442 38M337 41L338 42L337 41M341 42L341 47L342 47L341 42M443 42L444 43L443 42M336 46L336 49L337 49L336 46M439 46L439 49L440 49L439 46M342 48L342 51L343 51L342 48M444 48L444 51L445 51L444 48M438.333 51.6667L438.667 52.3333L438.333 51.6667M343.333 52.6667L343.667 53.3333L343.333 52.6667M437.333 54.6667L437.667 55.3333L437.333 54.6667M344.333 55.6667L344.667 56.3333L344.333 55.6667M436 57L437 58L436 57M444 57L444 60L445 60L444 57M345 58L346 59L345 58M336.333 59.6667L336.667 60.3333L336.333 59.6667M435 59L436 60L435 59M346 60L347 61L346 60M434 61L435 62L434 61M347 62L348 63L347 62M433 63L434 64L433 63M348 64L349 65L348 64M349 65L350 66L349 65M432 65L433 66L432 65M443 65L444 66L443 65M337 66L338 67L337 66M431 66L432 67L431 66M350 67L351 68L350 67M351 68L352 69L351 68M430 68L431 69L430 68M338 69L339 70L338 69M352 69L353 70L352 69M429 69L430 70L429 69M442 69L443 70L442 69M428 70L429 71L428 70M353 71L354 72L353 71M427 71L428 72L427 71M339 72L340 73L339 72M354 72L355 73L354 72M441 72L442 73L441 72M355 73L356 74L355 73M356 74L357 75L356 74M340 75L341 76L340 75M357 75L358 76L357 75M440 75L441 76L440 75M358 76L359 77L358 76M422 76L423 77L422 76M341 77L342 78L341 77M359 77L360 78L359 77M421 77L422 78L421 77M439 77L440 78L439 77M420 78L421 79L420 78M342 79L343 80L342 79M362 79L363 80L362 79M419 79L420 80L419 79M438 79L439 80L438 79M363 80L364 81L363 80M417 80L418 81L417 80M343 81L344 82L343 81M365 81L366 82L365 81M416 81L417 82L416 81M366 82L367 83L366 82M414 82L415 83L414 82M436 82L437 83L436 82M368 83L369 84L368 83M412.667 83.3333L413.333 83.6667L412.667 83.3333M345 84L346 85L345 84M370 84L371 85L370 84M410.667 84.3333L411.333 84.6667L410.667 84.3333M435 84L436 85L435 84M372.667 85.3333L373.333 85.6667L372.667 85.3333M408 85L409 86L408 85M434 85L435 86L434 85M375.667 86.3333L376.333 86.6667L375.667 86.3333M405.667 86.3333L406.333 86.6667L405.667 86.3333M347 87L348 88L347 87M378.667 87.3333L379.333 87.6667L378.667 87.3333M401 87L401 88L404 88L401 87M348 88L349 89L348 88M382 88L382 89L387 89L382 88M395 88L395 89L400 89L395 88M432 88L433 89L432 88M349 89L350 90L349 89M431 89L432 90L431 89M430 90L431 91L430 90M429 91L430 92L429 91M428 92L429 93L428 92M427 93L428 94L427 93M354 94L355 95L354 94M426 94L427 95L426 94M355 95L356 96L355 95M425 95L426 96L425 95M356 96L357 97L356 96M424 96L425 97L424 96M359 98L360 99L359 98M421 98L422 99L421 98M360 99L361 100L360 99M362 100L363 101L362 100M418 100L419 101L418 100M364 101L365 102L364 101M416 101C398.883 110.116 383.559 107.94 366 102L366 186L417 186L417 127L416 101z"/>
<path style="fill:#1ce1dc; stroke:none;" d="M147 314L632 314C616.63 281.653 581.118 253.405 552 234C450.88 166.612 315.424 170.333 217 240.86C191.625 259.042 160.663 285.247 147 314z"/>
<path style="fill:#09b2b2; stroke:none;" d="M111 387C96.6001 380.803 80.0797 377.625 65 373.291C60.2496 371.926 51.8711 367.713 47 369.353C40.8852 371.411 35.4652 380.103 31.6651 385C18.6341 401.792 8.32626 422.096 4 443C28.084 446.544 52.5882 456.563 76 463.291C86.6381 466.348 96.99 466.114 97 479L136 479C136.507 454.416 138.118 426.213 149.89 404C176.544 353.705 244.136 328.793 297 348.814C316.023 356.019 331.75 367.138 346.999 380.424C360.063 391.807 369.862 404.991 389 404.992C410.018 404.994 421.765 388.982 436 376.171C448.178 365.21 462.658 355.883 478 350.064C530.252 330.245 596.087 349.613 625.547 399C639.461 422.326 642 452.448 642 479L682 479L682 468L774 439C769.225 418.362 758.322 398.268 744.916 382C741.157 377.439 735.24 368.141 729 367.118C723.377 366.196 715.262 370.579 710 372.333C695.842 377.053 681.543 382.635 667 386C663.787 367.331 651.673 348.431 642.734 332C639.893 326.778 637.61 317.23 631.674 314.603C623.018 310.773 606.46 314 597 314L513 314L253 314L178 314C169.567 314 155.058 311.182 147.326 314.603C141.158 317.332 138.732 327.581 135.715 333C126.1 350.275 117.347 368.24 111 387z"/>
<path style="fill:#1ce1dc; stroke:none;" d="M48 369L111 387L139 327C114.598 328.048 90.5947 337.627 70 350.204C62.5358 354.762 51.9088 360.978 48 369M640 327L667 386L729 367C724.983 359.48 715.153 353.925 708 349.601C687.691 337.324 663.986 328.03 640 327z"/>
<path style="fill:#0e7676; stroke:none;" d="M137 466L138 466C138.056 380.893 234.17 330.243 308 364.309C322.742 371.111 336.076 381.258 347.996 392.17C360.646 403.748 370.24 415.998 389 415.998C409.978 415.998 421.927 400.132 436 387.09C445.187 378.577 456.693 370.882 468 365.486C540.074 331.094 639.29 377.188 640 463C644.044 453.362 639.057 436.777 636.625 427C626.004 384.306 588.497 353.193 546 344.211C512.191 337.065 475.775 345.529 448 365.885C429.979 379.093 415.169 403.332 391 404.91C372.959 406.087 361.767 393.341 349.961 382.17C337.441 370.323 322.936 359.253 307 352.427C251.729 328.755 180.702 347.583 150.439 402C140.054 420.673 137 444.977 137 466z"/>
<path style="fill:#2e3c48; stroke:none;" d="M198 662L150 662C154.918 673.633 166.187 684.184 175 693C200.435 718.445 231.234 738.195 265 750.681C354.104 783.631 468.478 780.789 552 733.281C581.477 716.514 613.21 692.122 630 662L580 662C624.277 611.279 642.638 547.419 641.015 481C639.772 430.153 622.122 385.192 572 363.579C559.624 358.243 546.455 354.455 533 353.17C500.027 350.019 469.228 361.112 443 380.63C425.173 393.895 412.037 417.057 387 415.961C363.899 414.949 349.906 391.555 333 378.895C307.654 359.914 277.569 350.926 246 353.09C233.051 353.977 219.837 357.629 208 362.862C185.457 372.827 162.2 390.965 150.489 413C139.306 434.044 137 459.605 137 483C137 523.567 142.185 563.554 158.861 601C169.095 623.979 183.766 641.714 198 662z"/>
<path style="fill:#0e7676; stroke:none;" d="M236 416L237 417L236 416z"/>
<path style="fill:#09b2b2; stroke:none;" d="M237 416L238 417L237 416z"/>
<path style="fill:#1ce1dc; stroke:none;" d="M238 416.439C185.852 424.647 197.022 505.742 249 497.561C301.488 489.299 290.328 408.202 238 416.439z"/>
<path style="fill:#09b2b2; stroke:none;" d="M249 416L250 417L249 416z"/>
<path style="fill:#0e7676; stroke:none;" d="M250.667 416.333L251.333 416.667L250.667 416.333M527.667 416.333L528.333 416.667L527.667 416.333z"/>
<path style="fill:#09b2b2; stroke:none;" d="M529 416L530 417L529 416z"/>
<path style="fill:#1ce1dc; stroke:none;" d="M530 416.439C477.513 424.701 488.672 505.798 541 497.561C593.068 489.365 582.077 408.242 530 416.439z"/>
<path style="fill:#09b2b2; stroke:none;" d="M541 416L542 417L541 416z"/>
<path style="fill:#0e7676; stroke:none;" d="M542 416L543 417L542 416M232 417L233 418L232 417z"/>
<path style="fill:#09b2b2; stroke:none;" d="M254 417L255 418L254 417z"/>
<path style="fill:#0e7676; stroke:none;" d="M255 417L256 418L255 417M523 417L524 418L523 417z"/>
<path style="fill:#09b2b2; stroke:none;" d="M524 417L525 418L524 417z"/>
<path style="fill:#0e7676; stroke:none;" d="M546 417L547 418L546 417z"/>
<path style="fill:#09b2b2; stroke:none;" d="M229 418L230 419L229 418M257 418L258 419L257 418z"/>
<path style="fill:#0e7676; stroke:none;" d="M258 418L259 419L258 418M520 418L521 419L520 418z"/>
<path style="fill:#09b2b2; stroke:none;" d="M521 418L522 419L521 418M549 418L550 419L549 418z"/>
<path style="fill:#0e7676; stroke:none;" d="M226 419L227 420L226 419M260 419L261 420L260 419M518 419L519 420L518 419M552 419L553 420L552 419M224 420L225 421L224 420z"/>
<path style="fill:#09b2b2; stroke:none;" d="M262 420L263 421L262 420M516 420L517 421L516 420z"/>
<path style="fill:#0e7676; stroke:none;" d="M554 420L555 421L554 420M264 421L265 422L264 421M514 421L515 422L514 421z"/>
<path style="fill:#09b2b2; stroke:none;" d="M221 422L222 423L221 422M557 422L558 423L557 422z"/>
<path style="fill:#0e7676; stroke:none;" d="M267 423L268 424L267 423M511 423L512 424L511 423M218 424L219 425L218 424z"/>
<path style="fill:#09b2b2; stroke:none;" d="M268 424L269 425L268 424M510 424L511 425L510 424z"/>
<path style="fill:#0e7676; stroke:none;" d="M560 424L561 425L560 424z"/>
<path style="fill:#09b2b2; stroke:none;" d="M217 425L218 426L217 425M561 425L562 426L561 425M212 430L213 431L212 430M566 430L567 431L566 430M211 431L212 432L211 431M567 431L568 432L567 431z"/>
<path style="fill:#0e7676; stroke:none;" d="M210 432L211 433L210 432z"/>
<path style="fill:#09b2b2; stroke:none;" d="M276 432L277 433L276 432M502 432L503 433L502 432z"/>
<path style="fill:#0e7676; stroke:none;" d="M568 432L569 433L568 432M277 433L278 434L277 433M501 433L502 434L501 433M208 435L209 436L208 435z"/>
<path style="fill:#09b2b2; stroke:none;" d="M278 435L279 436L278 435M500 435L501 436L500 435z"/>
<path style="fill:#0e7676; stroke:none;" d="M570 435L571 436L570 435M279 436L280 437L279 436M499 436L500 437L499 436z"/>
<path style="fill:#09b2b2; stroke:none;" d="M207 437L208 438L207 437M571 437L572 438L571 437z"/>
<path style="fill:#0e7676; stroke:none;" d="M280 438L281 439L280 438M498 438L499 439L498 438z"/>
<path style="fill:#09b2b2; stroke:none;" d="M206 439L207 440L206 439M572 439L573 440L572 439z"/>
<path style="fill:#0e7676; stroke:none;" d="M682 468L682 479L642 479L642 464L641 464C641 514.17 638.046 561.904 615.742 608C606.067 627.995 591.589 643.469 580 662L616 662C620.118 662 626.86 663.271 630.482 660.972C635.537 657.765 639.276 649.099 642.139 644C651.346 627.602 658.957 608.892 664.996 591C667.148 584.626 668.175 574.53 672.702 569.419C676.082 565.603 683.337 564.554 688 563C700.306 558.899 716.27 556.693 727 549.2C743.438 537.72 752.202 517.846 775 518C777.231 490.686 781.66 466.249 774 439L682 468M281 440L282 441L281 440M497 440L498 441L497 440M205 441L206 442L205 441z"/>
<path style="fill:#09b2b2; stroke:none;" d="M281 441L282 442L281 441M497 441L498 442L497 441z"/>
<path style="fill:#0e7676; stroke:none;" d="M573 441L574 442L573 441M198 662C194.391 654.249 186.981 648.029 182.036 641C173.561 628.951 166.665 616.239 160.258 603C140.335 561.825 137 516.887 137 472L136 472L136 479L97 479C96.9997 476.082 97.866 471.285 95.3966 469.139C91.0875 465.394 81.4267 464.564 76 463C59.9985 458.388 44.0197 453.681 28 449.14C23.1 447.752 5.92587 439.818 3.34414 446.149C-3.18022 462.147 -1.03847 486.348 1.42747 503C2.13058 507.748 2.46331 516.629 5.85725 520.272C12.0577 526.929 25.7486 524.342 32.9105 530.303C42.0836 537.939 48.7758 549.227 60 554.446C70.0728 559.129 82.3145 561.112 93 564.14C97.2609 565.348 103.326 566.049 106.487 569.419C110.987 574.217 112.201 584.827 114.344 591C120.551 608.878 127.934 627.656 137.424 644C140.379 649.089 144.15 657.867 149.326 660.972C153.099 663.236 159.761 662 164 662L198 662M282 443L283 444L282 443M496 443L497 444L496 443M204 444L205 445L204 444M574 444L575 445L574 444M283 446L284 447L283 446M495 446L496 447L495 446M203 447L204 448L203 447z"/>
<path style="fill:#09b2b2; stroke:none;" d="M283 447L284 448L283 447M495 447L496 448L495 447z"/>
<path style="fill:#0e7676; stroke:none;" d="M575 447L576 448L575 447z"/>
<path style="fill:#09b2b2; stroke:none;" d="M203 448L204 449L203 448M575 448L576 449L575 448z"/>
<path style="fill:#0e7676; stroke:none;" d="M284 451L285 452L284 451M494 451L495 452L494 451z"/>
<path style="fill:#09b2b2; stroke:none;" d="M284 452L284 456L285 456L284 452M494 452L494 456L495 456L494 452z"/>
<path style="fill:#0e7676; stroke:none;" d="M202 453L202 461L203 461L202 453M576 453L576 461L577 461L576 453z"/>
<path style="fill:#09b2b2; stroke:none;" d="M284 458L284 462L285 462L284 458M494 458L494 462L495 462L494 458z"/>
<path style="fill:#0e7676; stroke:none;" d="M284 462L285 463L284 462M494 462L495 463L494 462z"/>
<path style="fill:#09b2b2; stroke:none;" d="M203.333 464.667L203.667 465.333L203.333 464.667M575.333 464.667L575.667 465.333L575.333 464.667z"/>
<path style="fill:#0e7676; stroke:none;" d="M203 466L204 467L203 466z"/>
<path style="fill:#09b2b2; stroke:none;" d="M283 466L284 467L283 466M495 466L496 467L495 466z"/>
<path style="fill:#0e7676; stroke:none;" d="M575 466L576 467L575 466M283 467L284 468L283 467M495 467L496 468L495 467M204 469L205 470L204 469M574 469L575 470L574 469M282 470L283 471L282 470M496 470L497 471L496 470M205 472L206 473L205 472z"/>
<path style="fill:#09b2b2; stroke:none;" d="M281 472L282 473L281 472M497 472L498 473L497 472z"/>
<path style="fill:#0e7676; stroke:none;" d="M573 472L574 473L573 472M281 473L282 474L281 473M497 473L498 474L497 473z"/>
<path style="fill:#09b2b2; stroke:none;" d="M206 474L207 475L206 474M572 474L573 475L572 474z"/>
<path style="fill:#0e7676; stroke:none;" d="M280 475L281 476L280 475M498 475L499 476L498 475z"/>
<path style="fill:#09b2b2; stroke:none;" d="M207 476L208 477L207 476M571 476L572 477L571 476z"/>
<path style="fill:#0e7676; stroke:none;" d="M279 477L280 478L279 477M499 477L500 478L499 477M208 478L209 479L208 478z"/>
<path style="fill:#09b2b2; stroke:none;" d="M278 478L279 479L278 478M500 478L501 479L500 478z"/>
<path style="fill:#0e7676; stroke:none;" d="M570 478L571 479L570 478z"/>
<path style="fill:#09b2b2; stroke:none;" d="M209 479L210 480L209 479M569 479L570 480L569 479z"/>
<path style="fill:#0e7676; stroke:none;" d="M277 480L278 481L277 480M501 480L502 481L501 480M210 481L211 482L210 481z"/>
<path style="fill:#09b2b2; stroke:none;" d="M276 481L277 482L276 481M502 481L503 482L502 481z"/>
<path style="fill:#0e7676; stroke:none;" d="M568 481L569 482L568 481z"/>
<path style="fill:#09b2b2; stroke:none;" d="M211 482L212 483L211 482M567 482L568 483L567 482M212 483L213 484L212 483M566 483L567 484L566 483M217 488L218 489L217 488M561 488L562 489L561 488z"/>
<path style="fill:#0e7676; stroke:none;" d="M218 489L219 490L218 489z"/>
<path style="fill:#09b2b2; stroke:none;" d="M268 489L269 490L268 489M510 489L511 490L510 489z"/>
<path style="fill:#0e7676; stroke:none;" d="M560 489L561 490L560 489M267 490L268 491L267 490M511 490L512 491L511 490z"/>
<path style="fill:#09b2b2; stroke:none;" d="M221 491L222 492L221 491M557 491L558 492L557 491z"/>
<path style="fill:#0e7676; stroke:none;" d="M222 492L223 493L222 492M264 492L265 493L264 492M514 492L515 493L514 492M556 492L557 493L556 492M224 493L225 494L224 493z"/>
<path style="fill:#09b2b2; stroke:none;" d="M262 493L263 494L262 493M516 493L517 494L516 493z"/>
<path style="fill:#0e7676; stroke:none;" d="M554 493L555 494L554 493M226 494L227 495L226 494M260 494L261 495L260 494z"/>
<path style="fill:#09b2b2; stroke:none;" d="M518 494L519 495L518 494z"/>
<path style="fill:#0e7676; stroke:none;" d="M552 494L553 495L552 494z"/>
<path style="fill:#ffffff; stroke:none;" d="M0 495L0 771L360 771L360 770C290.123 770 219.253 737.45 171.015 688C160.105 676.816 150.864 664.052 142.344 651C138.548 645.184 135.557 636.208 130.366 631.6C125.463 627.247 113.315 627.181 107 625.279C92.8873 621.027 79.1498 614.086 67 605.806C39.3848 586.985 18.6763 559.509 7.69522 528C4.04113 517.515 4.20942 504.939 0 495z"/>
<path style="fill:#09b2b2; stroke:none;" d="M229 495L230 496L229 495M257 495L258 496L257 495z"/>
<path style="fill:#0e7676; stroke:none;" d="M258 495L259 496L258 495M520 495L521 496L520 495z"/>
<path style="fill:#09b2b2; stroke:none;" d="M521 495L522 496L521 495M549 495L550 496L549 495z"/>
<path style="fill:#ffffff; stroke:none;" d="M778 495C777.605 542.779 740.776 591.559 700 613.218C690.178 618.436 679.783 623.267 669 626.116C663.543 627.557 654.181 627.721 649.634 631.013C643.896 635.167 640.52 646.08 636.656 652C627.374 666.219 616.947 679.906 604.996 692C558.211 739.345 487.018 769.993 420 770L420 771L779 771L779 576L779 520L778 495z"/>
<path style="fill:#09b2b2; stroke:none;" d="M232 496L233 497L232 496M254 496L255 497L254 496z"/>
<path style="fill:#0e7676; stroke:none;" d="M255 496L256 497L255 496M523 496L524 497L523 496z"/>
<path style="fill:#09b2b2; stroke:none;" d="M524 496L525 497L524 496M546 496L547 497L546 496z"/>
<path style="fill:#0e7676; stroke:none;" d="M235.667 497.333L236.333 497.667L235.667 497.333z"/>
<path style="fill:#09b2b2; stroke:none;" d="M237 497L238 498L237 497M249.667 497.333L250.333 497.667L249.667 497.333z"/>
<path style="fill:#0e7676; stroke:none;" d="M251 497L252 498L251 497M527 497L528 498L527 497z"/>
<path style="fill:#09b2b2; stroke:none;" d="M528.667 497.333L529.333 497.667L528.667 497.333M541 497L542 498L541 497z"/>
<path style="fill:#0e7676; stroke:none;" d="M542.667 497.333L543.333 497.667L542.667 497.333M387 499L387 500L391 500L387 499M380.667 500.333L381.333 500.667L380.667 500.333z"/>
<path style="fill:#09b2b2; stroke:none;" d="M382 500L383 501L382 500z"/>
<path style="fill:#1ce1dc; stroke:none;" d="M383 500.428C362.78 503.324 340.65 507.87 323 518.615C316.558 522.537 308.431 528.185 306.573 536C304.406 545.11 309.623 559.284 312.341 568C321.357 596.917 334.251 622.507 356 643.996C362.842 650.756 379.336 666.55 390 665.15C400.258 663.803 412.838 652.798 420 645.961C441.87 625.083 456.868 599.06 465.14 570C467.831 560.549 474.545 544.744 471.296 535C468.613 526.951 459.973 521.395 453 517.428C434.624 506.975 404.309 497.377 383 500.428z"/>
<path style="fill:#09b2b2; stroke:none;" d="M395 500L396 501L395 500z"/>
<path style="fill:#0e7676; stroke:none;" d="M396.667 500.333L397.333 500.667L396.667 500.333M374.667 501.333L375.333 501.667L374.667 501.333z"/>
<path style="fill:#09b2b2; stroke:none;" d="M376 501L377 502L376 501M401 501L402 502L401 501z"/>
<path style="fill:#0e7676; stroke:none;" d="M402.667 501.333L403.333 501.667L402.667 501.333M369 502L370 503L369 502z"/>
<path style="fill:#09b2b2; stroke:none;" d="M370 502L371 503L370 502M407 502L408 503L407 502z"/>
<path style="fill:#0e7676; stroke:none;" d="M408 502L409 503L408 502M364 503L365 504L364 503z"/>
<path style="fill:#09b2b2; stroke:none;" d="M365 503L366 504L365 503M412 503L413 504L412 503z"/>
<path style="fill:#0e7676; stroke:none;" d="M413 503L414 504L413 503M360 504L361 505L360 504z"/>
<path style="fill:#09b2b2; stroke:none;" d="M361 504L362 505L361 504M416 504L417 505L416 504z"/>
<path style="fill:#0e7676; stroke:none;" d="M417 504L418 505L417 504M356 505L357 506L356 505z"/>
<path style="fill:#09b2b2; stroke:none;" d="M357 505L358 506L357 505M420 505L421 506L420 505z"/>
<path style="fill:#0e7676; stroke:none;" d="M421 505L422 506L421 505M352 506L353 507L352 506z"/>
<path style="fill:#09b2b2; stroke:none;" d="M353 506L354 507L353 506M424 506L425 507L424 506z"/>
<path style="fill:#0e7676; stroke:none;" d="M425 506L426 507L425 506M349 507L350 508L349 507M428 507L429 508L428 507M346 508L347 509L346 508M431 508L432 509L431 508M343 509L344 510L343 509M434 509L435 510L434 509M340 510L341 511L340 510M437 510L438 511L437 510M337 511L338 512L337 511z"/>
<path style="fill:#09b2b2; stroke:none;" d="M338 511L339 512L338 511z"/>
<path style="fill:#0e7676; stroke:none;" d="M440 511L441 512L440 511z"/>
<path style="fill:#09b2b2; stroke:none;" d="M335 512L336 513L335 512M442 512L443 513L442 512M333 513L334 514L333 513M444 513L445 514L444 513z"/>
<path style="fill:#0e7676; stroke:none;" d="M445 513L446 514L445 513M330 514L331 515L330 514M447 514L448 515L447 514M328 515L329 516L328 515M449 515L450 516L449 515M326 516L327 517L326 516M451 516L452 517L451 516M453 517L454 518L453 517z"/>
<path style="fill:#2e3c48; stroke:none;" d="M648 630C691.798 629.637 734.527 595.165 756.68 560C764.475 547.626 772.791 531.798 774 517L750.17 525.51L725 549.867L673.419 568.086L665.656 588L648 630z"/>
<path style="fill:#09b2b2; stroke:none;" d="M323 518L324 519L323 518M454 518L455 519L454 518z"/>
<path style="fill:#0e7676; stroke:none;" d="M321 519L322 520L321 519M456 519L457 520L456 519z"/>
<path style="fill:#2e3c48; stroke:none;" d="M6 521C7.19819 534.724 15.7095 549.562 22.9529 561C48.7205 601.688 86.0067 619.916 131 631L113 586L105.721 568.089L59 553.387L32.9105 529.563L6 521z"/>
<path style="fill:#0e7676; stroke:none;" d="M318 521L319 522L318 521M459 521L460 522L459 521z"/>
<path style="fill:#09b2b2; stroke:none;" d="M317 522L318 523L317 522z"/>
<path style="fill:#0e7676; stroke:none;" d="M463 524L464 525L463 524M313 525L314 526L313 525M464 525L465 526L464 525M312 526L313 527L312 526M465 526L466 527L465 526M311 527L312 528L311 527M466 527L467 528L466 527M467 528L468 529L467 528z"/>
<path style="fill:#09b2b2; stroke:none;" d="M308 531L309 532L308 531M469 531L470 532L469 531z"/>
<path style="fill:#0e7676; stroke:none;" d="M306 534L307 535L306 534M471 534L472 535L471 534z"/>
<path style="fill:#09b2b2; stroke:none;" d="M306 535L307 536L306 535z"/>
<path style="fill:#0e7676; stroke:none;" d="M305 537L306 538L305 537M472 537L473 538L472 537z"/>
<path style="fill:#09b2b2; stroke:none;" d="M306.333 541.667L306.667 542.333L306.333 541.667M471 542L472 543L471 542z"/>
<path style="fill:#0e7676; stroke:none;" d="M306 543L307 544L306 543M471.333 543.667L471.667 544.333L471.333 543.667z"/>
<path style="fill:#09b2b2; stroke:none;" d="M307 547L308 548L307 547z"/>
<path style="fill:#0e7676; stroke:none;" d="M307.333 548.667L307.667 549.333L307.333 548.667z"/>
<path style="fill:#09b2b2; stroke:none;" d="M470 548L471 549L470 548z"/>
<path style="fill:#0e7676; stroke:none;" d="M470 549L471 550L470 549z"/>
<path style="fill:#09b2b2; stroke:none;" d="M308 552L309 553L308 552z"/>
<path style="fill:#0e7676; stroke:none;" d="M308 553L309 554L308 553z"/>
<path style="fill:#09b2b2; stroke:none;" d="M469 553L470 554L469 553z"/>
<path style="fill:#0e7676; stroke:none;" d="M469 554L470 555L469 554z"/>
<path style="fill:#09b2b2; stroke:none;" d="M309 557L310 558L309 557M468 557L469 558L468 557z"/>
<path style="fill:#0e7676; stroke:none;" d="M309 558L310 559L309 558M468 558L469 559L468 558z"/>
<path style="fill:#09b2b2; stroke:none;" d="M310 561L311 562L310 561M467 561L468 562L467 561z"/>
<path style="fill:#0e7676; stroke:none;" d="M310 562L311 563L310 562M467 562L468 563L467 562M311 565L312 566L311 565z"/>
<path style="fill:#09b2b2; stroke:none;" d="M466 565L467 566L466 565z"/>
<path style="fill:#0e7676; stroke:none;" d="M466 566L467 567L466 566z"/>
<path style="fill:#09b2b2; stroke:none;" d="M312 568L313 569L312 568M465 568L466 569L465 568z"/>
<path style="fill:#0e7676; stroke:none;" d="M312 569L313 570L312 569M465 569L466 570L465 569z"/>
<path style="fill:#09b2b2; stroke:none;" d="M313 571L314 572L313 571z"/>
<path style="fill:#0e7676; stroke:none;" d="M313 572L314 573L313 572M464 572L465 573L464 572M314 575L315 576L314 575M463 575L464 576L463 575M315 578L316 579L315 578M462 578L463 579L462 578z"/>
<path style="fill:#09b2b2; stroke:none;" d="M316 580L317 581L316 580z"/>
<path style="fill:#0e7676; stroke:none;" d="M316 581L317 582L316 581M461 581L462 582L461 581z"/>
<path style="fill:#09b2b2; stroke:none;" d="M317 583L318 584L317 583M460 583L461 584L460 583z"/>
<path style="fill:#0e7676; stroke:none;" d="M317 584L318 585L317 584M460 584L461 585L460 584M318 586L319 587L318 586z"/>
<path style="fill:#09b2b2; stroke:none;" d="M459 586L460 587L459 586M319 588L320 589L319 588z"/>
<path style="fill:#0e7676; stroke:none;" d="M319 589L320 590L319 589M458 589L459 590L458 589M320 591L321 592L320 591z"/>
<path style="fill:#09b2b2; stroke:none;" d="M457 591L458 592L457 591M321 593L322 594L321 593M456 593L457 594L456 593M322 595L323 596L322 595z"/>
<path style="fill:#0e7676; stroke:none;" d="M322 596L323 597L322 596M455 596L456 597L455 596M323 598L324 599L323 598M454 598L455 599L454 598M324 600L325 601L324 600M453 600L454 601L453 600M325 602L326 603L325 602M452 602L453 603L452 602M326 604L327 605L326 604M451 604L452 605L451 604M327 606L328 607L327 606M450 606L451 607L450 606M449 608L450 609L449 608z"/>
<path style="fill:#09b2b2; stroke:none;" d="M329 609L330 610L329 609M448 609L449 610L448 609M330 611L331 612L330 611M447 611L448 612L447 611z"/>
<path style="fill:#0e7676; stroke:none;" d="M331 613L332 614L331 613M446 613L447 614L446 613z"/>
<path style="fill:#09b2b2; stroke:none;" d="M332 614L333 615L332 614M333 616L334 617L333 616M444 616L445 617L444 616z"/>
<path style="fill:#0e7676; stroke:none;" d="M443 618L444 619L443 618z"/>
<path style="fill:#09b2b2; stroke:none;" d="M335 619L336 620L335 619M442 619L443 620L442 619z"/>
<path style="fill:#0e7676; stroke:none;" d="M441 621L442 622L441 621z"/>
<path style="fill:#09b2b2; stroke:none;" d="M337 622L338 623L337 622M440 622L441 623L440 622z"/>
<path style="fill:#0e7676; stroke:none;" d="M339 625L340 626L339 625M438 625L439 626L438 625z"/>
<path style="fill:#09b2b2; stroke:none;" d="M340 626L341 627L340 626M437 626L438 627L437 626z"/>
<path style="fill:#0e7676; stroke:none;" d="M342 629L343 630L342 629M435 629L436 630L435 629z"/>
<path style="fill:#09b2b2; stroke:none;" d="M343 630L344 631L343 630M434 630L435 631L434 630M344 631L345 632L344 631z"/>
<path style="fill:#0e7676; stroke:none;" d="M431 634L432 635L431 634M347 635L348 636L347 635M430 635L431 636L430 635M348 636L349 637L348 636z"/>
<path style="fill:#09b2b2; stroke:none;" d="M429 636L430 637L429 636M349 637L350 638L349 637M428 637L429 638L428 637M350 638L351 639L350 638M427 638L428 639L427 638M351 639L352 640L351 639M426 639L427 640L426 639M352 640L353 641L352 640M425 640L426 641L425 640M353 641L354 642L353 641M424 641L425 642L424 641M354 642L355 643L354 642M423 642L424 643L423 642M355 643L356 644L355 643M422 643L423 644L422 643M356 644L357 645L356 644M421 644L422 645L421 644z"/>
<path style="fill:#0e7676; stroke:none;" d="M357 645L358 646L357 645z"/>
<path style="fill:#09b2b2; stroke:none;" d="M420 645L421 646L420 645z"/>
<path style="fill:#0e7676; stroke:none;" d="M358 646L359 647L358 646M419 646L420 647L419 646M359 647L360 648L359 647M418 647L419 648L418 647z"/>
<path style="fill:#09b2b2; stroke:none;" d="M363 650L364 651L363 650M414 650L415 651L414 650z"/>
<path style="fill:#0e7676; stroke:none;" d="M364 651L365 652L364 651M413 651L414 652L413 651M412 652L413 653L412 652z"/>
<path style="fill:#09b2b2; stroke:none;" d="M367 653L368 654L367 653M410 653L411 654L410 653z"/>
<path style="fill:#0e7676; stroke:none;" d="M368 654L369 655L368 654M409 654L410 655L409 654M371 656L372 657L371 656z"/>
<path style="fill:#09b2b2; stroke:none;" d="M406 656L407 657L406 656z"/>
<path style="fill:#0e7676; stroke:none;" d="M374 658L375 659L374 658M403 658L404 659L403 658z"/>
<path style="fill:#09b2b2; stroke:none;" d="M376 659L377 660L376 659M401 659L402 660L401 659z"/>
<path style="fill:#0e7676; stroke:none;" d="M377 660L378 661L377 660M400 660L401 661L400 660M379 661L380 662L379 661M398 661L399 662L398 661M381 662L382 663L381 662z"/>
<path style="fill:#09b2b2; stroke:none;" d="M396 662L397 663L396 662M383 663L384 664L383 663M394 663L395 664L394 663M385 664L386 665L385 664M392 664L393 665L392 664z"/>
<path style="fill:#0e7676; stroke:none;" d="M387 665L388 666L387 665M390 665L391 666L390 665z"/>
</svg>
